<svg width="24" height="24" viewBox="0 0 24 24" fill="none" xmlns="http://www.w3.org/2000/svg">
<path d="M0 12C0 5.37258 5.37258 0 12 0V0C18.6274 0 24 5.37258 24 12V12C24 18.6274 18.6274 24 12 24V24C5.37258 24 0 18.6274 0 12V12Z" fill="#F5F5F4"/>
<path d="M12.3335 10V4L17.6668 12L12.3335 10Z" stroke="#57534E" stroke-width="0.666667" stroke-linecap="round" stroke-linejoin="round"/>
<path d="M12.3335 10V4L7.00016 12L12.3335 10Z" stroke="#57534E" stroke-width="0.666667" stroke-linecap="round" stroke-linejoin="round"/>
<path d="M12.3333 20L7 13L12.3333 16V20Z" stroke="#57534E" stroke-width="0.666667" stroke-linecap="round" stroke-linejoin="round"/>
<path d="M12.3332 20L17.6665 13L12.3332 16V20Z" stroke="#57534E" stroke-width="0.666667" stroke-linecap="round" stroke-linejoin="round"/>
<path d="M12.3335 15V10L17.6668 12L12.3335 15Z" stroke="#57534E" stroke-width="0.666667" stroke-linecap="round" stroke-linejoin="round"/>
<path d="M12.3335 15V10L7.00016 12L12.3335 15Z" stroke="#57534E" stroke-width="0.666667" stroke-linecap="round" stroke-linejoin="round"/>
<path d="M12 23C5.92487 23 1 18.0751 1 12H-1C-1 19.1797 4.8203 25 12 25V23ZM23 12C23 18.0751 18.0751 23 12 23V25C19.1797 25 25 19.1797 25 12H23ZM12 1C18.0751 1 23 5.92487 23 12H25C25 4.8203 19.1797 -1 12 -1V1ZM12 -1C4.8203 -1 -1 4.8203 -1 12H1C1 5.92487 5.92487 1 12 1V-1Z" fill="white"/>
</svg>
